<?xml version="1.0" encoding="utf-8"?>
<!-- Generator: Adobe Illustrator 16.0.0, SVG Export Plug-In . SVG Version: 6.00 Build 0)  -->
<!DOCTYPE svg PUBLIC "-//W3C//DTD SVG 1.1//EN" "http://www.w3.org/Graphics/SVG/1.1/DTD/svg11.dtd">
<svg version="1.1" id="Layer_1" xmlns="http://www.w3.org/2000/svg" xmlns:xlink="http://www.w3.org/1999/xlink" x="0px" y="0px"
	 width="128px" height="128px" viewBox="0 0 128 128" enable-background="new 0 0 128 128" xml:space="preserve">
<path fill="#2196F3" stroke="#2196F3" stroke-miterlimit="10" d="M127.5,124.761c0,1.513-1.196,2.739-2.763,2.739H3.262
	c-1.566,0-2.762-1.227-2.762-2.739V3.239C0.5,1.727,1.696,0.5,3.262,0.5h121.475c1.566,0,2.763,1.227,2.763,2.739V124.761z"/>
<path fill="#0076C4" d="M86.795,19.264L85.962,20C86.025,20,86,20,86,20v88.169c0,0.002-0.28,0.01-0.403,0.01
	c-0.041,0-0.056-0.128-0.099-0.128L105.616,128H128V61h0.495L86.795,19.264z"/>
<path fill="#007ACD" d="M105.522,128l-20.106-19.952c-7.957-0.039-15.408-2.126-21.838-5.844
	c-6.489,3.753-13.945,5.943-21.984,5.943c-0.122,0,0.406,0.023-0.594,0.021v-0.59l-1.285,1.085L59.128,128H105.522z"/>
<path fill="#D6D6D6" stroke="#FFFFFF" stroke-width="2" stroke-miterlimit="10" d="M85.597,20.125
	c-8.036,0-15.534,2.159-22.02,5.912c-6.486-3.753-13.942-5.912-21.977-5.912c-0.122,0,0.4,0.008-0.6,0.009v88.035
	c1,0.002,0.49,0.01,0.612,0.01c8.034,0,15.533-2.159,22.019-5.912c6.486,3.753,13.943,5.912,21.979,5.912
	c0.122,0,0.391-0.008,0.391-0.01V20.134C86,20.133,85.72,20.125,85.597,20.125z"/>
<line fill="none" stroke="#FFFFFF" stroke-width="2" stroke-miterlimit="10" x1="41" y1="65" x2="86" y2="65"/>
<path fill="none" stroke="#FFFFFF" stroke-width="2" stroke-miterlimit="10" d="M41.612,20.125c-0.122,0,0.388,0.008-0.612,0.009
	v88.035c1,0.002,0.49,0.01,0.612,0.01c24.338,0,44.068-19.712,44.068-44.027C85.681,39.836,65.95,20.125,41.612,20.125z"/>
<path fill="none" stroke="#FFFFFF" stroke-width="2" stroke-miterlimit="10" d="M85.649,20.125c0.121,0,0.455,0.008,0.455,0.009
	v88.035c0,0.002-0.334,0.01-0.455,0.01c-24.338,0-44.068-19.712-44.068-44.027C41.582,39.836,61.312,20.125,85.649,20.125z"/>
</svg>
